<svg xmlns="http://www.w3.org/2000/svg" width="23.23" height="18.334" viewBox="0 0 23.23 18.334">
  <path id="edit" d="M11.563,13.75l1.51-1.51-1.98-1.98-1.51,1.51V12.5h1.25v1.25h.729Zm5.729-9.375a.269.269,0,0,0-.43.013L12.3,8.945a.3.3,0,1,0,.417.417l3.394-3.394L17.279,4.8a.269.269,0,0,0,.013-.43Zm1.042,7.735v2.474a3.758,3.758,0,0,1-3.75,3.75H3.75a3.611,3.611,0,0,1-2.65-1.1A3.615,3.615,0,0,1,0,14.584V3.75A3.611,3.611,0,0,1,1.1,1.1,3.615,3.615,0,0,1,3.75,0H14.584a3.58,3.58,0,0,1,1.523.325.4.4,0,0,1,.235.3A.406.406,0,0,1,16.224,1l-.638.638a.381.381,0,0,1-.417.1,2.307,2.307,0,0,0-.586-.078H3.75a2.006,2.006,0,0,0-1.471.612A2.006,2.006,0,0,0,1.667,3.75V14.583a2.006,2.006,0,0,0,.612,1.471,2.006,2.006,0,0,0,1.471.612H14.584a2.089,2.089,0,0,0,2.083-2.083v-1.64a.39.39,0,0,1,.117-.286l.834-.834a.391.391,0,0,1,.456-.091.377.377,0,0,1,.261.378ZM17.083,2.5l3.75,3.75L12.083,15H8.334V11.25Zm5.782,1.719-1.2,1.2-3.75-3.75,1.2-1.2a1.257,1.257,0,0,1,1.771,0l1.98,1.98a1.206,1.206,0,0,1,.365.885A1.206,1.206,0,0,1,22.865,4.219Z" fill="#ff460c"/>
</svg>
