<svg xmlns="http://www.w3.org/2000/svg" width="21.805" height="22.395" viewBox="0 0 21.805 22.395">
  <g id="settings" transform="translate(-2.715 -2.295)">
    <path id="Path_9334" data-name="Path 9334" d="M22.436,14.1V12.875l1.54-1.348a1.6,1.6,0,0,0,.3-2.046L22.387,6.273a1.617,1.617,0,0,0-1.9-.722l-1.949.657a9.1,9.1,0,0,0-1.051-.6l-.409-2.021a1.6,1.6,0,0,0-1.6-1.291H11.719a1.6,1.6,0,0,0-1.6,1.291L9.706,5.607a9.208,9.208,0,0,0-1.059.6l-1.909-.69a1.6,1.6,0,0,0-.513-.048,1.6,1.6,0,0,0-1.387.8L2.945,9.482A1.6,1.6,0,0,0,3.274,11.5L4.79,12.883V14.11L3.274,15.457A1.6,1.6,0,0,0,2.945,17.5l1.893,3.208a1.617,1.617,0,0,0,1.9.722l1.949-.657a9.1,9.1,0,0,0,1.051.6l.409,2.021a1.6,1.6,0,0,0,1.6,1.291h3.786a1.6,1.6,0,0,0,1.6-1.291l.409-2.021a9.208,9.208,0,0,0,1.059-.6l1.941.657a1.617,1.617,0,0,0,1.9-.722L24.282,17.5a1.6,1.6,0,0,0-.329-2.013ZM21,19.909l-2.751-.93a7.106,7.106,0,0,1-2.174,1.259l-.569,2.88H11.72l-.57-2.848a7.508,7.508,0,0,1-2.166-1.259l-2.759.9L4.333,16.7l2.182-1.925a7.139,7.139,0,0,1,0-2.51L4.333,10.284,6.226,7.075l2.751.93a7.106,7.106,0,0,1,2.174-1.259l.569-2.88h3.786l.57,2.848a7.508,7.508,0,0,1,2.166,1.259L21,7.075l1.893,3.208-2.182,1.925a7.139,7.139,0,0,1,0,2.51L22.893,16.7Z" transform="translate(0)" fill="#ff460c"/>
    <path id="Path_9335" data-name="Path 9335" d="M16.063,20.875a4.765,4.765,0,1,1,3.417-1.4A4.813,4.813,0,0,1,16.063,20.875Zm0-8.021a3.136,3.136,0,1,0,2.291.918,3.136,3.136,0,0,0-2.291-.918Z" transform="translate(-2.45 -2.57)" fill="#523f95"/>
  </g>
</svg>
