<svg xmlns="http://www.w3.org/2000/svg" xmlns:xlink="http://www.w3.org/1999/xlink" width="57" height="60.654" viewBox="0 0 57 60.654">
  <defs>
    <clipPath id="clip-path">
      <rect id="Rectangle_2603" data-name="Rectangle 2603" width="57" height="60.654" fill="none"/>
    </clipPath>
  </defs>
  <g id="Group_2422" data-name="Group 2422" transform="translate(-20 -10.673)">
    <g id="Group_2344" data-name="Group 2344" transform="translate(20 10.673)">
      <g id="Group_2343" data-name="Group 2343" clip-path="url(#clip-path)">
        <path id="Path_2659" data-name="Path 2659" d="M2.661,11.289l10.018,5.784,9.5-5.488a15.033,15.033,0,0,1,15.39,0l9.5,5.488L57.1,11.289,44.532,4.035a28.622,28.622,0,0,0-29.307,0Z" transform="translate(-1.379 0)" fill="#ff460c" fill-rule="evenodd"/>
        <path id="Path_2660" data-name="Path 2660" d="M89.026,28.052,79.018,33.83V44.806a15.031,15.031,0,0,1-7.7,13.328l-9.5,5.486V75.187l12.554-7.248A28.624,28.624,0,0,0,89.026,42.558Z" transform="translate(-32.026 -14.533)" fill="#523f95" fill-rule="evenodd"/>
        <path id="Path_2661" data-name="Path 2661" d="M27.207,74.993V63.624L17.7,58.133a15.03,15.03,0,0,1-7.693-13.327V33.83L0,28.052V42.366A28.623,28.623,0,0,0,14.656,67.748Z" transform="translate(0 -14.533)" fill="#523f95" fill-rule="evenodd"/>
      </g>
    </g>
    <path id="Path_2662" data-name="Path 2662" d="M191.024,177.834c.21-.38.568-.184.848-.185,5.412-.013,10.825,0,16.238-.026a1.507,1.507,0,0,1,1.34.675c.8,1.024,1.674,1.99,2.683,3.175H194.069a14.789,14.789,0,0,1-3.045-3.64" transform="translate(-153.591 -148.972)" fill="#ff8e6b"/>
    <path id="Path_2663" data-name="Path 2663" d="M211.231,353.146c-1.429.022-2.858.06-4.287.063-4.2.008-8.4-.011-12.6.018a1.653,1.653,0,0,1-1.521-.692c-.786-1.034-1.676-1.989-2.669-3.147h18.024a14.773,14.773,0,0,1,3.058,3.759" transform="translate(-152.807 -302.984)" fill="#ff460c"/>
    <path id="Path_2664" data-name="Path 2664" d="M208.616,188.634c-4.65,0-9.3.015-13.949-.014-.738,0-1.031.179-.977.956.059.853-.005,1.715-.016,2.574-.916-1.086-1.829-2.174-2.751-3.256a1.106,1.106,0,0,1-.293-.768c.021-2.754.029-5.508.041-8.261a36.149,36.149,0,0,1,3.045,3.64c0,1.4.024,2.793-.025,4.187-.022.628.174.792.794.789" transform="translate(-153.239 -151.003)" fill="#ff8e6b"/>
    <path id="Path_2665" data-name="Path 2665" d="M364.261,268.318q.012-1.834.024-3.668c1.083,1.061,1.99,2.273,2.971,3.422a.885.885,0,0,1,.2.61c-.007,2.751-.005,5.5-.013,8.252,0,.081-.077.162-.118.243a37.4,37.4,0,0,1-3.058-3.759q0-2.55-.008-5.1" transform="translate(-308.903 -227.015)" fill="#ff8e6b"/>
    <path id="Path_2666" data-name="Path 2666" d="M370.88,257.643c-1.042,0-1.83,0-2.618,0a.7.7,0,0,1-.6-.22c-.97-1.146-1.947-2.288-3.065-3.6,1.063,0,1.9,0,2.746,0a.612.612,0,0,1,.482.259c.965,1.121,1.925,2.247,3.051,3.562" transform="translate(-309.208 -217.307)" fill="#ff460c"/>
    <path id="Path_2667" data-name="Path 2667" d="M234.575,263.241c.033,1.3.033,1.706-.033,3.613-4.639,0-8.9.012-13.535,0a6.993,6.993,0,0,1-1.417-.133c.1-2.194-.034-2.026,0-3.174.013-.454.383-.474.889-.47,4.792.036,9.171-.047,13.963.066" transform="translate(-179.197 -225.603)" fill="#ff460c"/>
  </g>
</svg>
